#N canvas 608 101 650 583 10;
#X obj 448 142 gemwin;
#X msg 515 65 0 \, destroy;
#X obj 26 154 gemhead;
#X obj 144 339 f;
#X obj 171 339 + 1;
#X obj 26 300 separator;
#X obj 26 322 t a b b;
#X obj 49 475 f;
#X obj 26 502 translateXYZ;
#X obj 64 454 f;
#X obj 144 408 * 2;
#X floatatom 208 87 5 0 0 0 - - -;
#X obj 59 256 f;
#X obj 372 143 loadbang;
#X floatatom 159 388 5 0 0 0 - - -;
#X obj 208 130 *~;
#X floatatom 133 104 5 0 0 0 - - -;
#X obj 133 147 +~;
#X obj 133 169 cos~;
#X text 162 169 graph on every frame;
#X obj 133 193 tabwrite~ visual_graph;
#X obj 74 234 arraysize visual_graph;
#X obj 144 361 tabread visual_graph;
#X obj 133 125 phasor~ 62;
#X obj 208 108 osc~ 60;
#X obj 264 69 osc~ 1;
#X obj 264 91 *~ 0.5;
#X obj 264 113 +~ 0.5;
#X floatatom 264 47 5 0 0 0 - - -;
#X msg 399 231 resize \$1;
#X obj 399 253 s visual_graph;
#X obj 399 274 table visual_graph;
#X obj 399 187 samplerate~;
#X obj 399 209 / 20;
#X msg 369 89 frame \$1;
#X floatatom 369 43 5 0 0 2 framerate - -;
#X text 404 41 default 20;
#X msg 159 316 0;
#X obj 26 278 repeat;
#X obj 76 476 + 0.00363;
#X obj 26 527 square 0.01;
#X msg 448 65 create \, 1;
#X obj 448 87 t a b;
#X obj 515 87 t a b;
#X msg 542 113 dsp 0;
#X msg 475 113 dsp 1;
#X obj 542 139 s pd;
#X msg 79 432 -4;
#X obj 26 176 t a b b b b b;
#X obj 372 165 t b b;
#X text 127 23 phase modulation for graphing;
#X text 68 277 repeat gemlist size_of_table times;
#X text 86 297 separate render chains;
#X text 216 378 get coordinates for each render chain;
#X text 138 474 <- this number and the size of the points (squares)
are a result of trial and error. haven't figured out yet an algorithm
to set tham automatically;
#X text 169 407 set hight (amplitude...);
#X text 431 209 table size = samplerate / framerate;
#X obj 127 433 / 20;
#X obj 127 455 * 0.00363;
#X obj 369 65 t f f b f;
#X text 157 432 is framerate changes..;
#X connect 1 0 43 0;
#X connect 2 0 48 0;
#X connect 3 0 4 0;
#X connect 3 0 22 0;
#X connect 4 0 3 1;
#X connect 5 0 6 0;
#X connect 6 0 8 0;
#X connect 6 1 7 0;
#X connect 6 2 3 0;
#X connect 7 0 8 1;
#X connect 7 0 39 0;
#X connect 8 0 40 0;
#X connect 9 0 7 1;
#X connect 10 0 8 2;
#X connect 11 0 24 0;
#X connect 12 0 38 1;
#X connect 13 0 49 0;
#X connect 14 0 10 1;
#X connect 15 0 17 1;
#X connect 16 0 23 0;
#X connect 17 0 18 0;
#X connect 18 0 20 0;
#X connect 21 0 12 1;
#X connect 22 0 10 0;
#X connect 23 0 17 0;
#X connect 24 0 15 0;
#X connect 25 0 26 0;
#X connect 26 0 27 0;
#X connect 27 0 15 1;
#X connect 28 0 25 0;
#X connect 29 0 30 0;
#X connect 32 0 33 0;
#X connect 33 0 29 0;
#X connect 34 0 0 0;
#X connect 35 0 59 0;
#X connect 37 0 3 1;
#X connect 38 0 5 0;
#X connect 39 0 7 1;
#X connect 41 0 42 0;
#X connect 42 0 0 0;
#X connect 42 1 45 0;
#X connect 43 0 0 0;
#X connect 43 1 44 0;
#X connect 44 0 46 0;
#X connect 45 0 46 0;
#X connect 47 0 9 1;
#X connect 48 0 38 0;
#X connect 48 1 9 0;
#X connect 48 2 12 0;
#X connect 48 3 47 0;
#X connect 48 4 37 0;
#X connect 48 5 20 0;
#X connect 49 0 21 0;
#X connect 49 1 32 0;
#X connect 57 0 58 0;
#X connect 58 0 39 1;
#X connect 59 0 34 0;
#X connect 59 1 57 0;
#X connect 59 2 49 0;
#X connect 59 3 33 1;
